
<svg version="1.1" id="Layer_1" xmlns="http://www.w3.org/2000/svg" xmlns:xlink="http://www.w3.org/1999/xlink" x="0px" y="0px"
	 width="100%" viewBox="0 0 447 281" enable-background="new 0 0 447 281" xml:space="preserve">
<path fill="transparent" opacity="1.000000" stroke="none" 
	d="
M448.000000,156.000000 
	C448.000000,197.952240 448.000000,239.904480 448.000000,282.000000 
	C361.979156,282.000000 275.958252,282.000000 189.182846,281.718872 
	C193.901474,276.308258 196.541565,271.035645 195.371063,262.560486 
	C193.104126,246.146271 193.015472,229.432388 191.994537,212.844513 
	C191.358200,202.505463 190.651001,192.170807 190.005432,181.832291 
	C188.990433,165.577423 188.007889,149.320526 186.997528,133.065369 
	C186.344864,122.564690 185.695084,112.063713 184.992279,101.566338 
	C184.359726,92.118332 178.784988,87.005257 169.181976,87.002151 
	C147.850464,86.995247 126.518967,87.000000 105.187462,87.000000 
	C79.856293,87.000000 54.525051,87.036186 29.194008,86.980354 
	C20.349419,86.960861 14.581370,92.374420 14.087614,97.725670 
	C12.836220,111.288094 11.970244,124.886742 11.010349,138.475159 
	C10.292156,148.641983 9.645491,158.814056 9.007195,168.986313 
	C7.987249,185.240784 6.944801,201.494171 6.023368,217.754349 
	C5.556193,225.998413 5.378244,234.258453 4.983945,242.507187 
	C4.701061,248.425064 4.788340,254.424072 3.791598,260.229126 
	C2.389490,268.395050 1.994331,275.843750 10.182860,280.881592 
	C10.305031,280.956757 10.068909,281.614258 10.000000,282.000000 
	C7.001475,282.000000 4.002949,282.000000 1.003318,282.000000 
	C1.002212,188.380844 1.002212,94.761703 1.002212,1.071276 
	C149.879211,1.071276 298.758484,1.071276 448.000000,1.071276 
	C448.000000,51.686985 448.000000,102.374832 447.617188,153.878204 
	C441.313019,154.465195 435.392426,154.157425 429.469421,154.100616 
	C428.657898,154.092834 427.573914,155.175018 427.056122,156.021667 
	C420.806763,166.240158 414.640259,176.509323 408.226715,187.138870 
	C401.490479,175.946381 394.888458,164.976852 388.514801,154.386826 
	C381.474396,154.386826 374.788086,154.386826 367.501373,154.386826 
	C375.619720,167.856857 383.239136,180.872543 391.250031,193.642639 
	C395.645447,200.649353 399.256134,207.544662 398.118713,216.287079 
	C397.463959,221.319519 398.000000,226.506866 398.000000,231.797607 
	C404.475647,231.797607 410.543732,231.797607 417.000000,231.797607 
	C417.000000,223.651779 416.955902,215.701675 417.041809,207.752975 
	C417.056824,206.366928 417.292816,204.793549 417.979034,203.633316 
	C426.319122,189.531921 434.716553,175.463654 443.230591,161.466766 
	C444.468994,159.430786 446.393158,157.811905 448.000000,156.000000 
M207.000000,225.426239 
	C207.000000,227.530579 207.000000,229.634933 207.000000,231.999588 
	C224.148132,231.999588 240.802750,232.564468 257.388977,231.744888 
	C264.907318,231.373383 272.579926,229.103378 277.164429,221.488022 
	C280.271515,216.326874 280.757965,210.870758 279.658325,205.440140 
	C278.286560,198.665604 273.986877,193.805862 266.820587,191.549683 
	C275.045746,186.431931 277.101196,178.880569 275.856415,170.566162 
	C274.659729,162.573013 268.983246,157.727493 261.366425,156.147324 
	C254.716827,154.767838 247.813080,154.280869 241.002060,154.086990 
	C229.751526,153.766724 218.485229,154.000000 207.000000,154.000000 
	C207.000000,177.851944 207.000000,201.145752 207.000000,225.426239 
M313.773102,231.999039 
	C320.939117,233.446594 327.962250,234.499725 335.455353,233.167267 
	C346.982788,231.117401 355.959320,226.067307 360.364685,214.967941 
	C362.050018,210.721802 362.815979,205.870956 362.904602,201.274536 
	C363.206543,185.615219 363.020111,169.946472 363.020111,154.254852 
	C357.078827,154.254852 350.678986,154.254852 344.000000,154.254852 
	C344.000000,156.141006 344.000000,157.775391 344.000000,159.409775 
	C344.000000,173.392273 344.211975,187.379532 343.897980,201.354980 
	C343.768372,207.123154 341.950348,212.596329 336.082489,215.414902 
	C330.122162,218.277908 324.275452,218.658325 318.351288,214.917603 
	C312.364838,211.137482 311.235138,205.132629 311.104736,199.057068 
	C310.784515,184.141388 311.000000,169.214218 311.000000,154.244278 
	C304.434052,154.244278 298.367065,154.244278 292.001007,154.244278 
	C292.001007,171.598511 291.997742,188.710114 292.013550,205.821701 
	C292.014130,206.471436 292.173126,207.126221 292.302094,207.769882 
	C294.686584,219.671051 301.815857,227.530518 313.773102,231.999039 
M91.996155,16.021755 
	C97.563538,16.346746 103.188629,16.272526 108.688095,17.067398 
	C129.934799,20.138319 146.817886,40.589363 146.994400,61.810894 
	C147.032776,66.425049 147.000000,71.039795 147.000000,75.786270 
	C151.501617,75.786270 155.569641,75.786270 159.614029,75.786270 
	C162.735641,44.525635 151.942169,24.679005 131.797470,12.250760 
	C109.175453,-1.705861 85.186104,-1.202724 63.538780,14.463123 
	C42.989452,29.334366 35.878216,50.802406 39.592758,75.694687 
	C43.357651,75.694687 47.097607,75.694687 50.828003,75.694687 
	C50.182705,35.373875 69.580872,21.764462 91.996155,16.021755 
z"/>
<path fill="#61BFFF" opacity="1.000000" stroke="none" 
	d="
M10.468657,282.000000 
	C10.068909,281.614258 10.305031,280.956757 10.182860,280.881592 
	C1.994331,275.843750 2.389490,268.395050 3.791598,260.229126 
	C4.788340,254.424072 4.701061,248.425064 4.983945,242.507187 
	C5.378244,234.258453 5.556193,225.998413 6.023368,217.754349 
	C6.944801,201.494171 7.987249,185.240784 9.007195,168.986313 
	C9.645491,158.814056 10.292156,148.641983 11.010349,138.475159 
	C11.970244,124.886742 12.836220,111.288094 14.087614,97.725670 
	C14.581370,92.374420 20.349419,86.960861 29.194008,86.980354 
	C54.525051,87.036186 79.856293,87.000000 105.187462,87.000000 
	C126.518967,87.000000 147.850464,86.995247 169.181976,87.002151 
	C178.784988,87.005257 184.359726,92.118332 184.992279,101.566338 
	C185.695084,112.063713 186.344864,122.564690 186.997528,133.065369 
	C188.007889,149.320526 188.990433,165.577423 190.005432,181.832291 
	C190.651001,192.170807 191.358200,202.505463 191.994537,212.844513 
	C193.015472,229.432388 193.104126,246.146271 195.371063,262.560486 
	C196.541565,271.035645 193.901474,276.308258 188.714188,281.718872 
	C129.645767,282.000000 70.291542,282.000000 10.468657,282.000000 
M89.046669,155.953384 
	C89.046669,181.154022 89.046669,206.354675 89.046669,231.773834 
	C108.480370,231.773834 128.536453,231.773834 148.763580,231.773834 
	C148.763580,227.144928 148.763580,222.743912 148.763580,217.803467 
	C134.480087,217.803467 120.419937,217.803467 106.363846,217.803467 
	C106.363846,211.544159 106.363846,205.832352 106.363846,199.683319 
	C118.456383,199.683319 130.187988,199.683319 141.651505,199.683319 
	C141.651505,194.800797 141.651505,190.375351 141.651505,185.658295 
	C129.693192,185.658295 118.081085,185.658295 106.278290,185.658295 
	C106.278290,179.956802 106.278290,174.567062 106.278290,168.698792 
	C119.947731,168.698792 133.345200,168.698792 146.699249,168.698792 
	C146.699249,163.633530 146.699249,159.051987 146.699249,154.255798 
	C127.612274,154.255798 108.824600,154.255798 89.507904,154.112839 
	C89.408981,154.419510 89.310051,154.726196 89.046669,155.953384 
M188.950546,195.933167 
	C188.254425,195.302048 187.564865,194.129868 186.861191,194.121323 
	C176.974915,194.001297 167.086700,194.039810 157.365387,194.039810 
	C157.365387,198.856750 157.365387,203.062286 157.365387,207.165863 
	C168.085220,207.165863 178.436127,207.165863 188.994934,207.165863 
	C188.994934,203.482986 188.994934,200.171707 188.950546,195.933167 
z"/>
<path fill="#FDC761" opacity="1.000000" stroke="none" 
	d="
M448.000000,155.666687 
	C446.393158,157.811905 444.468994,159.430786 443.230591,161.466766 
	C434.716553,175.463654 426.319122,189.531921 417.979034,203.633316 
	C417.292816,204.793549 417.056824,206.366928 417.041809,207.752975 
	C416.955902,215.701675 417.000000,223.651779 417.000000,231.797607 
	C410.543732,231.797607 404.475647,231.797607 398.000000,231.797607 
	C398.000000,226.506866 397.463959,221.319519 398.118713,216.287079 
	C399.256134,207.544662 395.645447,200.649353 391.250031,193.642639 
	C383.239136,180.872543 375.619720,167.856857 367.501373,154.386826 
	C374.788086,154.386826 381.474396,154.386826 388.514801,154.386826 
	C394.888458,164.976852 401.490479,175.946381 408.226715,187.138870 
	C414.640259,176.509323 420.806763,166.240158 427.056122,156.021667 
	C427.573914,155.175018 428.657898,154.092834 429.469421,154.100616 
	C435.392426,154.157425 441.313019,154.465195 447.617188,154.346863 
	C448.000000,154.444443 448.000000,154.888901 448.000000,155.666687 
z"/>
<path fill="#FDC761" opacity="1.000000" stroke="none" 
	d="
M207.000000,224.932892 
	C207.000000,201.145752 207.000000,177.851944 207.000000,154.000000 
	C218.485229,154.000000 229.751526,153.766724 241.002060,154.086990 
	C247.813080,154.280869 254.716827,154.767838 261.366425,156.147324 
	C268.983246,157.727493 274.659729,162.573013 275.856415,170.566162 
	C277.101196,178.880569 275.045746,186.431931 266.820587,191.549683 
	C273.986877,193.805862 278.286560,198.665604 279.658325,205.440140 
	C280.757965,210.870758 280.271515,216.326874 277.164429,221.488022 
	C272.579926,229.103378 264.907318,231.373383 257.388977,231.744888 
	C240.802750,232.564468 224.148132,231.999588 207.000000,231.999588 
	C207.000000,229.634933 207.000000,227.530579 207.000000,224.932892 
M253.320297,200.840805 
	C244.675537,200.438797 236.030777,200.036789 227.196228,199.625961 
	C227.196228,206.152710 227.196228,211.876297 227.196228,217.996719 
	C234.979446,217.996719 242.605881,218.414093 250.154205,217.827103 
	C254.148270,217.516495 258.842896,216.282104 259.901306,211.318863 
	C260.923279,206.526672 259.387299,202.581757 253.320297,200.840805 
M227.000000,175.538879 
	C227.000000,178.971817 227.000000,182.404770 227.000000,186.492599 
	C235.008118,185.963104 242.408249,185.750443 249.730453,184.881393 
	C253.837723,184.393921 256.615417,180.991852 256.730225,177.194000 
	C256.846008,173.363754 254.127441,169.731720 250.118866,169.205551 
	C242.545578,168.211456 234.858871,168.081345 227.000000,167.578156 
	C227.000000,170.593826 227.000000,172.576736 227.000000,175.538879 
z"/>
<path fill="#FDC761" opacity="1.000000" stroke="none" 
	d="
M313.357910,231.989624 
	C301.815857,227.530518 294.686584,219.671051 292.302094,207.769882 
	C292.173126,207.126221 292.014130,206.471436 292.013550,205.821701 
	C291.997742,188.710114 292.001007,171.598511 292.001007,154.244278 
	C298.367065,154.244278 304.434052,154.244278 311.000000,154.244278 
	C311.000000,169.214218 310.784515,184.141388 311.104736,199.057068 
	C311.235138,205.132629 312.364838,211.137482 318.351288,214.917603 
	C324.275452,218.658325 330.122162,218.277908 336.082489,215.414902 
	C341.950348,212.596329 343.768372,207.123154 343.897980,201.354980 
	C344.211975,187.379532 344.000000,173.392273 344.000000,159.409775 
	C344.000000,157.775391 344.000000,156.141006 344.000000,154.254852 
	C350.678986,154.254852 357.078827,154.254852 363.020111,154.254852 
	C363.020111,169.946472 363.206543,185.615219 362.904602,201.274536 
	C362.815979,205.870956 362.050018,210.721802 360.364685,214.967941 
	C355.959320,226.067307 346.982788,231.117401 335.455353,233.167267 
	C327.962250,234.499725 320.939117,233.446594 313.357910,231.989624 
z"/>
<path fill="#FDC761" opacity="1.000000" stroke="none" 
	d="
M91.571915,16.174263 
	C69.580872,21.764462 50.182705,35.373875 50.828003,75.694687 
	C47.097607,75.694687 43.357651,75.694687 39.592758,75.694687 
	C35.878216,50.802406 42.989452,29.334366 63.538780,14.463123 
	C85.186104,-1.202724 109.175453,-1.705861 131.797470,12.250760 
	C151.942169,24.679005 162.735641,44.525635 159.614029,75.786270 
	C155.569641,75.786270 151.501617,75.786270 147.000000,75.786270 
	C147.000000,71.039795 147.032776,66.425049 146.994400,61.810894 
	C146.817886,40.589363 129.934799,20.138319 108.688095,17.067398 
	C103.188629,16.272526 97.563538,16.346746 91.571915,16.174263 
z"/>
<path fill="#FDC761" opacity="1.000000" stroke="none" 
	d="
M90.036919,154.255798 
	C108.824600,154.255798 127.612274,154.255798 146.699249,154.255798 
	C146.699249,159.051987 146.699249,163.633530 146.699249,168.698792 
	C133.345200,168.698792 119.947731,168.698792 106.278290,168.698792 
	C106.278290,174.567062 106.278290,179.956802 106.278290,185.658295 
	C118.081085,185.658295 129.693192,185.658295 141.651505,185.658295 
	C141.651505,190.375351 141.651505,194.800797 141.651505,199.683319 
	C130.187988,199.683319 118.456383,199.683319 106.363846,199.683319 
	C106.363846,205.832352 106.363846,211.544159 106.363846,217.803467 
	C120.419937,217.803467 134.480087,217.803467 148.763580,217.803467 
	C148.763580,222.743912 148.763580,227.144928 148.763580,231.773834 
	C128.536453,231.773834 108.480370,231.773834 89.046669,231.773834 
	C89.046669,206.354675 89.046669,181.154022 89.317169,155.424622 
	C89.833557,154.750000 89.983307,154.536636 90.036919,154.255798 
z"/>
<path fill="#FDC761" opacity="1.000000" stroke="none" 
	d="
M188.972748,196.396790 
	C188.994934,200.171707 188.994934,203.482986 188.994934,207.165863 
	C178.436127,207.165863 168.085220,207.165863 157.365387,207.165863 
	C157.365387,203.062286 157.365387,198.856750 157.365387,194.039810 
	C167.086700,194.039810 176.974915,194.001297 186.861191,194.121323 
	C187.564865,194.129868 188.254425,195.302048 188.972748,196.396790 
z"/>
<path fill="#676767" opacity="1.000000" stroke="none" 
	d="
M89.772415,154.184326 
	C89.983307,154.536636 89.833557,154.750000 89.399399,154.964371 
	C89.310051,154.726196 89.408981,154.419510 89.772415,154.184326 
z"/>
<path fill="#FFFFFF" opacity="1.000000" stroke="none" 
	d="
M253.735382,200.914795 
	C259.387299,202.581757 260.923279,206.526672 259.901306,211.318863 
	C258.842896,216.282104 254.148270,217.516495 250.154205,217.827103 
	C242.605881,218.414093 234.979446,217.996719 227.196228,217.996719 
	C227.196228,211.876297 227.196228,206.152710 227.196228,199.625961 
	C236.030777,200.036789 244.675537,200.438797 253.735382,200.914795 
z"/>
<path fill="#FFFFFF" opacity="1.000000" stroke="none" 
	d="
M227.000000,175.049271 
	C227.000000,172.576736 227.000000,170.593826 227.000000,167.578156 
	C234.858871,168.081345 242.545578,168.211456 250.118866,169.205551 
	C254.127441,169.731720 256.846008,173.363754 256.730225,177.194000 
	C256.615417,180.991852 253.837723,184.393921 249.730453,184.881393 
	C242.408249,185.750443 235.008118,185.963104 227.000000,186.492599 
	C227.000000,182.404770 227.000000,178.971817 227.000000,175.049271 
z"/>
</svg>